{
    "asset" : {
        "generator" : "Khronos glTF Blender I/O v1.4.40",
        "version" : "2.0"
    },
    "scene" : 0,
    "scenes" : [
        {
            "name" : "Scene",
            "nodes" : [
                0
            ]
        }
    ],
    "nodes" : [
        {
            "mesh" : 0,
            "name" : "Text",
            "rotation" : [
                0.7071068286895752,
                0,
                0,
                0.7071068286895752
            ]
        }
    ],
    "materials" : [
        {
            "doubleSided" : true,
            "name" : "Material.001",
            "pbrMetallicRoughness" : {
                "baseColorFactor" : [
                    0.800000011920929,
                    0.800000011920929,
                    0.800000011920929,
                    1
                ],
                "roughnessFactor" : 0
            }
        }
    ],
    "meshes" : [
        {
            "name" : "Text",
            "primitives" : [
                {
                    "attributes" : {
                        "POSITION" : 0,
                        "NORMAL" : 1,
                        "TEXCOORD_0" : 2
                    },
                    "indices" : 3,
                    "material" : 0
                }
            ]
        }
    ],
    "accessors" : [
        {
            "bufferView" : 0,
            "componentType" : 5126,
            "count" : 24605,
            "max" : [
                5.824999809265137,
                9.999999747378752e-06,
                1.2300000190734863
            ],
            "min" : [
                -5.883999824523926,
                -0.29999998211860657,
                -0.6910000443458557
            ],
            "type" : "VEC3"
        },
        {
            "bufferView" : 1,
            "componentType" : 5126,
            "count" : 24605,
            "type" : "VEC3"
        },
        {
            "bufferView" : 2,
            "componentType" : 5126,
            "count" : 24605,
            "type" : "VEC2"
        },
        {
            "bufferView" : 3,
            "componentType" : 5123,
            "count" : 32196,
            "type" : "SCALAR"
        }
    ],
    "bufferViews" : [
        {
            "buffer" : 0,
            "byteLength" : 295260,
            "byteOffset" : 0
        },
        {
            "buffer" : 0,
            "byteLength" : 295260,
            "byteOffset" : 295260
        },
        {
            "buffer" : 0,
            "byteLength" : 196840,
            "byteOffset" : 590520
        },
        {
            "buffer" : 0,
            "byteLength" : 64392,
            "byteOffset" : 787360
        }
    ],
    "buffers" : [
        {
            "byteLength" : 851752,
            "uri" : "data:application/octet-stream;base64,"
        }
    ]
}
